# xmcd CD database file
#
# Track frame offsets:
#	210
#	15802
#	38844
#	56766
#	84040
#	102441
#	126606
#	154144
#	174350
#	201622
#	220411
#	238562
#	255571
#	274199
#
# Disc length: 4054 seconds
#
# Revision: 0
# Processed by: cddbd v1.5.1PL2 Copyright (c) Steve Scherf et al.
# Submitted via: CDex 1.51
#
DISCID=c00fd40e
DTITLE=Bill Ramsey - Groove'n Jazz
DYEAR=2001
DGENRE=Jazz
TTITLE0=Isn't She Lovely
TTITLE1=Kansas City
TTITLE2=As Time Goes By
TTITLE3=The Girl From Ipanema
TTITLE4=Alright, OK You Win
TTITLE5=Tenderly
TTITLE6=I Can't Get Started
TTITLE7=Secret Love
TTITLE8=Just The Way You Are
TTITLE9=Caledonia - Version 2001
TTITLE10=My Funny Valentine
TTITLE11=I Could Write A Book
TTITLE12=Feelings
TTITLE13=On Broadway
EXTD=YEAR: 2001
EXTT0=
EXTT1=
EXTT2=
EXTT3=
EXTT4=
EXTT5=
EXTT6=
EXTT7=
EXTT8=
EXTT9=
EXTT10=
EXTT11=
EXTT12=
EXTT13=
PLAYORDER=
